# xmcd CD database generated by RipIT
#
# Track frame offsets:
# 150
# 13452
# 24961
# 38446
# 52170
# 65218
# 74728
# 88206
# 102106
# 113454
# 127961
# 139703
# 152321
# 166441
# 178697
# 191302
#
# Disc length: 2703 seconds
#
# Revision: 2
# Processed by: cddbd v1.5.2PL0 Copyright (c) Steve Scherf et al.
# Submitted via: RipIT 3.6.0 www.suwald.com/ripit/ripit.html on 2009-03-09 at 22:43
#
DISCID=d60a8d10
DTITLE=Various Artist - Ultimate Piano Works CD 09
DYEAR=1900
DGENRE=Jazz
TTITLE0=George Shearing - I'll Be Around
TTITLE1=Nat King Cole Trio - Rhythm Serenade
TTITLE2=Horace Silver - Day In, Day Out
TTITLE3=Erroll Garner - I Surrender Dear
TTITLE4=Joe Sullivan - My Silent Love
TTITLE5=Oscar Peterson - For You
TTITLE6=Bud Powell - Celia
TTITLE7=Erroll Garner - Blue Lou Part 1
TTITLE8=Billy Kyle - Girl Of My Dreams
TTITLE9=Joe Sullivan - Only A Dream
TTITLE10=Erroll Garner - The Petite Waltz
TTITLE11=Earl Hines - Chicago High Life
TTITLE12=Willie Smith - Echoes Of Spring
TTITLE13=Erroll Garner - Four O'Clock Jump
TTITLE14=Dave Brubeck - How High The Moon
TTITLE15=Thelonius Monk - Evidence
EXTD=
EXTT0=
EXTT1=
EXTT2=
EXTT3=
EXTT4=
EXTT5=
EXTT6=
EXTT7=
EXTT8=
EXTT9=
EXTT10=
EXTT11=
EXTT12=
EXTT13=
EXTT14=
EXTT15=
PLAYORDER=
